PathFileType	4	(X/Y/Z)	/Users/itak/Documents/Research/Walk-IL/dataset/trc/00580_00009.trc
DataRate	CameraRate	NumFrames	NumMarkers	Units	OrigDataRate	OrigDataStartFrame	OrigNumFrames
100.000000	100.000000	4	53	mm	100.000000	134	536
Frame#	Time	RPSI			LPSI			L3			STRN			T10			C7			CLAV			RBAK			LBAK			LSHO			LUPA			LAEL			LAOL			LWTS			LWPS			LFRA			LIFD			LHPS			LHTS			RSHO			RUPA			RAEL			RAOL			RWTS			RWPS			RFRA			RIFD			RHTS			RHPS			RBHD			LFHD			RFHD			LBHD			LHIP			RHIP			RASI			LASI			LKNE			LTHI			LANK			LTIP			LTOE			LMT1			LMT5			LHEE			RKNE			RTHI			RANK			RTIP			RTOE			RMT1			RMT5			RHEE			
		X1	Y1	Z1	X2	Y2	Z2	X3	Y3	Z3	X4	Y4	Z4	X5	Y5	Z5	X6	Y6	Z6	X7	Y7	Z7	X8	Y8	Z8	X9	Y9	Z9	X10	Y10	Z10	X11	Y11	Z11	X12	Y12	Z12	X13	Y13	Z13	X14	Y14	Z14	X15	Y15	Z15	X16	Y16	Z16	X17	Y17	Z17	X18	Y18	Z18	X19	Y19	Z19	X20	Y20	Z20	X21	Y21	Z21	X22	Y22	Z22	X23	Y23	Z23	X24	Y24	Z24	X25	Y25	Z25	X26	Y26	Z26	X27	Y27	Z27	X28	Y28	Z28	X29	Y29	Z29	X30	Y30	Z30	X31	Y31	Z31	X32	Y32	Z32	X33	Y33	Z33	X34	Y34	Z34	X35	Y35	Z35	X36	Y36	Z36	X37	Y37	Z37	X38	Y38	Z38	X39	Y39	Z39	X40	Y40	Z40	X41	Y41	Z41	X42	Y42	Z42	X43	Y43	Z43	X44	Y44	Z44	X45	Y45	Z45	X46	Y46	Z46	X47	Y47	Z47	X48	Y48	Z48	X49	Y49	Z49	X50	Y50	Z50	X51	Y51	Z51	X52	Y52	Z52	X53	Y53	Z53	

135	1.34	-1267.378540039062	1004.755981445312	-155.2581481933594	-1193.089965820312	1007.838684082031	-266.8778076171875	-1224.720703125	1105.304931640625	-207.5868072509766	-1008.673706054688	1278.38818359375	-76.21702575683594	-1224.415161132812	1231.501342773438	-205.7884063720703	-1172.329711914062	1500.5927734375	-155.7037658691406	-1019.852600097656	1390.79736328125	-80.98463439941406	-1281.472900390625	1378.402465820312	-126.0697174072266	-1157.038208007812	1453.926147460938	-254.9659576416016	-1030.755859375	1473.444458007812	-276.3730773925781	-1005.121887207031	1348.47021484375	-354.5399475097656	-978.0281372070312	1127.82080078125	-370.281982421875	-1079.161865234375	1119.54248046875	-367.6578369140625	-918.6542358398438	885.90087890625	-286.002685546875	-923.3945922851562	863.4981079101562	-370.015380859375	-954.379150390625	1041.970458984375	-366.2054138183594	-932.43701171875	718.4630126953125	-290.6312561035156	-919.0912475585938	803.5048828125	-359.4576110839844	-894.6400756835938	808.6429443359375	-296.3425903320312	-1204.264038085938	1455.013671875	4.968199729919434	-1258.487426757812	1390.380981445312	49.07020568847656	-1302.323974609375	1101.71923828125	71.27408599853516	-1335.235107421875	1089.096435546875	17.67829322814941	-1182.984130859375	871.4934692382812	101.1774063110352	-1258.911499023438	855.3219604492188	130.4652557373047	-1301.535400390625	1045.979858398438	80.30937957763672	-1191.415405273438	698.8279418945312	98.26385498046875	-1175.313232421875	777.8088989257812	125.2036209106445	-1249.804931640625	780.222900390625	135.1916656494141	-1134.282104492188	1671.542114257812	-49.73236846923828	-931.0465698242188	1694.03955078125	-90.88858795166016	-1018.003845214844	1688.570556640625	27.01582336425781	-1030.681274414062	1676.366333007812	-178.8471832275391	-1009.616882324219	933.7693481445312	-301.1620483398438	-1237.245971679688	923.632568359375	11.76987171173096	-1131.939331054688	955.548095703125	15.26647758483887	-979.090576171875	958.0358276367188	-214.9537200927734	-901.7514038085938	508.024658203125	-181.4493713378906	-929.41796875	672.079833984375	-229.5626068115234	-1090.959594726562	81.97024536132812	-311.9801330566406	-1012.655090332031	285.472412109375	-263.1887817382812	-936.7319946289062	53.83732986450195	-166.1801452636719	-1016.455932617188	58.24945449829102	-168.696044921875	-978.8881225585938	63.20161819458008	-267.0036926269531	-1176.21630859375	89.85820007324219	-297.4923400878906	-1186.722778320312	481.7015991210938	-48.83792495727539	-1198.43017578125	767.3677368164062	20.36420249938965	-1284.209716796875	34.53486633300781	-167.5478973388672	-1187.210693359375	338.4822692871094	-78.62136077880859	-1077.099487304688	37.30915069580078	-78.61339569091797	-1105.696533203125	36.78470993041992	-148.9480590820312	-1184.243041992188	37.85379028320312	-78.91116333007812	-1297.318969726562	24.62104606628418	-243.2451782226562	
136	1.35	-1265.255615234375	1004.691589355469	-154.0346527099609	-1190.753295898438	1007.868774414062	-265.4990539550781	-1222.56640625	1105.296875	-205.9532165527344	-1006.324829101562	1278.0673828125	-74.285400390625	-1222.342529296875	1231.530883789062	-203.6943969726562	-1169.812133789062	1500.498657226562	-153.3925476074219	-1017.352905273438	1390.476684570312	-79.00402069091797	-1279.063110351562	1378.430541992188	-123.7567596435547	-1154.798461914062	1453.918823242188	-252.7495574951172	-1028.500244140625	1473.263061523438	-274.3696899414062	-1003.390319824219	1348.318725585938	-352.8436889648438	-977.1316528320312	1127.692138671875	-369.4556274414062	-1078.3095703125	1119.7470703125	-366.0850524902344	-918.1535034179688	885.1251220703125	-286.7170715332031	-923.5025634765625	863.176025390625	-370.75048828125	-953.8683471679688	1041.705810546875	-365.8749694824219	-932.2389526367188	717.7451782226562	-291.89306640625	-919.3361206054688	803.1284790039062	-360.4748229980469	-894.3512573242188	807.8906860351562	-297.5549621582031	-1201.624877929688	1454.826782226562	7.284956932067871	-1255.841186523438	1390.244384765625	51.2939453125	-1300.212646484375	1101.596557617188	73.01366424560547	-1333.197509765625	1089.1591796875	19.42032623291016	-1181.317016601562	871.0599975585938	102.3648681640625	-1257.188842773438	854.9715576171875	131.63427734375	-1299.538330078125	1045.846313476562	81.95647430419922	-1190.068115234375	698.3873901367188	98.93709564208984	-1173.816162109375	777.2838745117188	126.1464157104492	-1248.248779296875	779.833740234375	136.1678924560547	-1131.641967773438	1671.171020507812	-47.37176895141602	-928.3002319335938	1693.657592773438	-88.10066223144531	-1015.501159667969	1688.01708984375	29.6549186706543	-1027.7626953125	1676.241333007812	-176.3291168212891	-1006.933837890625	934.1624755859375	-299.1811828613281	-1235.718383789062	923.2786865234375	12.89893627166748	-1130.436767578125	955.16552734375	16.89420509338379	-977.07568359375	958.1650390625	-212.8146667480469	-896.432373046875	509.7991638183594	-176.5159759521484	-925.3489379882812	673.244384765625	-225.9894866943359	-1082.573608398438	81.69973754882812	-305.5885620117188	-1005.704650878906	286.0519104003906	-257.6364440917969	-928.8853759765625	55.44056701660156	-158.8560485839844	-1008.6552734375	59.35391235351562	-161.7431335449219	-970.6016845703125	63.89323806762695	-259.9611206054688	-1167.878662109375	89.11669158935547	-291.5635070800781	-1186.025512695312	481.3963928222656	-48.25034332275391	-1197.299926757812	766.9879150390625	21.40182113647461	-1284.192626953125	34.56199645996094	-167.5703735351562	-1186.751831054688	338.227783203125	-78.17330932617188	-1077.103149414062	37.3030891418457	-78.59553527832031	-1105.698608398438	36.79398345947266	-148.9000244140625	-1184.246826171875	37.85271835327148	-78.89235687255859	-1297.2939453125	24.63683319091797	-243.3143463134766	
137	1.36	-1263.019165039062	1004.603149414062	-152.7985687255859	-1188.29736328125	1007.883117675781	-264.1197509765625	-1220.272705078125	1105.281982421875	-204.2996978759766	-1003.869689941406	1277.718139648438	-72.29002380371094	-1220.130981445312	1231.540405273438	-201.6005096435547	-1167.168823242188	1500.38330078125	-151.0271911621094	-1014.749084472656	1390.123779296875	-76.94560241699219	-1276.527221679688	1378.431518554688	-121.4057388305664	-1152.46630859375	1453.910278320312	-250.4808959960938	-1026.102416992188	1473.068481445312	-272.2951965332031	-1001.540588378906	1348.1552734375	-351.0679321289062	-976.1647338867188	1127.535278320312	-368.5621032714844	-1077.383911132812	1119.951293945312	-364.4012145996094	-917.5933837890625	884.3131103515625	-287.3967895507812	-923.6144409179688	862.8449096679688	-371.4629821777344	-953.2811889648438	1041.428588867188	-365.4896850585938	-932.0462036132812	716.9652099609375	-293.1602172851562	-919.6103515625	802.7380981445312	-361.4964294433594	-894.067138671875	807.0763549804688	-298.7726745605469	-1198.865234375	1454.604736328125	9.652505874633789	-1253.0908203125	1390.06396484375	53.58394622802734	-1297.988525390625	1101.444091796875	74.81002807617188	-1331.056518554688	1089.183227539062	21.22455406188965	-1179.470458984375	870.627197265625	103.5709915161133	-1255.287475585938	854.5936889648438	132.8513793945312	-1297.4140625	1045.673828125	83.65924835205078	-1188.533081054688	697.95556640625	99.68544769287109	-1172.105102539062	776.7560424804688	127.0992965698242	-1246.4853515625	779.4254760742188	137.1787567138672	-1128.896240234375	1670.78857421875	-44.96728134155273	-925.4771118164062	1693.222778320312	-85.23310852050781	-1012.88623046875	1687.445190429688	32.35574340820312	-1024.720825195312	1676.074951171875	-173.7576141357422	-1004.166748046875	934.5206909179688	-297.1847534179688	-1234.083129882812	922.9171142578125	14.06389713287354	-1128.865356445312	954.7718505859375	18.57087707519531	-974.94140625	958.273681640625	-210.6428527832031	-891.19287109375	511.5328979492188	-171.6167297363281	-921.3020629882812	674.4033203125	-222.4714660644531	-1073.51513671875	80.96358489990234	-298.7348327636719	-998.4505004882812	286.3619689941406	-251.8755493164062	-920.382568359375	56.89771270751953	-151.0476989746094	-1000.207763671875	60.24460601806641	-154.3046875	-961.6761474609375	64.27754211425781	-252.4151458740234	-1158.87158203125	87.83596038818359	-285.1818542480469	-1185.318725585938	481.0764770507812	-47.636962890625	-1196.093505859375	766.6190185546875	22.4650936126709	-1284.175415039062	34.58986282348633	-167.5944366455078	-1186.305786132812	337.9814147949219	-77.70659637451172	-1077.10888671875	37.29394149780273	-78.57542419433594	-1105.700805664062	36.80465698242188	-148.8527069091797	-1184.2548828125	37.84782028198242	-78.86772155761719	-1297.276245117188	24.66388130187988	-243.3783721923828	
138	1.37	-1260.671997070312	1004.481140136719	-151.5390625	-1185.737060546875	1007.86962890625	-262.738037109375	-1217.840576171875	1105.256958007812	-202.6173248291016	-1001.310607910156	1277.330078125	-70.23197937011719	-1217.776489257812	1231.524291992188	-199.5167541503906	-1164.3974609375	1500.24267578125	-148.6070251464844	-1012.040222167969	1389.731567382812	-74.81003570556641	-1273.867553710938	1378.398803710938	-119.0186157226562	-1150.031860351562	1453.895385742188	-248.1565551757812	-1023.557861328125	1472.856079101562	-270.1417541503906	-999.564697265625	1347.979370117188	-349.2024230957031	-975.1110229492188	1127.353149414062	-367.5936889648438	-1076.366943359375	1120.1494140625	-362.6114196777344	-916.9664916992188	883.4672241210938	-288.0411987304688	-923.7183227539062	862.506103515625	-372.1437683105469	-952.6028442382812	1041.1376953125	-365.0420532226562	-931.863037109375	716.1265869140625	-294.4205932617188	-919.9180908203125	802.3231201171875	-362.5027465820312	-893.79248046875	806.2037963867188	-299.9839477539062	-1195.988037109375	1454.337768554688	12.06908321380615	-1250.2451171875	1389.82470703125	55.94149398803711	-1295.650024414062	1101.244018554688	76.66548156738281	-1328.8076171875	1089.151245117188	23.09061813354492	-1177.43505859375	870.177734375	104.7961654663086	-1253.2138671875	854.1762084960938	134.1280517578125	-1295.157958984375	1045.445556640625	85.41350555419922	-1186.784545898438	697.5150756835938	100.5043792724609	-1170.173950195312	776.2158813476562	128.0734405517578	-1244.519897460938	778.9846801757812	138.2397003173828	-1126.044555664062	1670.394775390625	-42.51706695556641	-922.5909423828125	1692.730102539062	-82.28321838378906	-1010.157287597656	1686.855590820312	35.11630249023438	-1021.560974121094	1675.857055664062	-171.1313171386719	-1001.323608398438	934.8236694335938	-295.1796264648438	-1232.3369140625	922.5450439453125	15.27347183227539	-1127.20361328125	954.3605346679688	20.28889083862305	-972.67578125	958.3616943359375	-208.4549865722656	-886.0375366210938	513.2099609375	-166.7612609863281	-917.2584838867188	675.5477294921875	-218.9864349365234	-1063.834716796875	79.81929016113281	-291.4400329589844	-990.9157104492188	286.4156494140625	-245.9109497070312	-911.2666015625	58.25596618652344	-142.7887115478516	-991.1419677734375	60.95710754394531	-146.4239807128906	-952.14794921875	64.41046905517578	-244.3972015380859	-1149.2421875	86.07193756103516	-278.359375	-1184.603149414062	480.7443542480469	-46.98739624023438	-1194.80322265625	766.2533569335938	23.55726051330566	-1284.1572265625	34.61820602416992	-167.6211547851562	-1185.866088867188	337.7384948730469	-77.23027038574219	-1077.114868164062	37.28132247924805	-78.55506896972656	-1105.698120117188	36.81008148193359	-148.8172607421875	-1184.266357421875	37.83967590332031	-78.83858489990234	-1297.26611328125	24.70168113708496	-243.4328002929688	
